<svg xmlns="http://www.w3.org/2000/svg" viewBox="0 0 40 40"><defs><style>.cls-1{fill:#fff;}</style></defs><g id="Capa_2" data-name="Capa 2"><g id="Capa_1-2" data-name="Capa 1"><path class="cls-1" d="M15.15,28.5,28.5,20,15.15,11.5ZM20,40a19.19,19.19,0,0,1-7.75-1.58A20.24,20.24,0,0,1,1.57,27.75a20,20,0,0,1,0-15.55A20,20,0,0,1,5.88,5.85a20.43,20.43,0,0,1,6.37-4.27A19.36,19.36,0,0,1,20,0a19.62,19.62,0,0,1,7.8,1.57A20,20,0,0,1,38.42,12.2,19.29,19.29,0,0,1,40,20a19.19,19.19,0,0,1-1.58,7.75,20.26,20.26,0,0,1-4.27,6.37,19.81,19.81,0,0,1-6.35,4.3A19.29,19.29,0,0,1,20,40Zm0-3a16.38,16.38,0,0,0,12-5,16.44,16.44,0,0,0,5-12,16.41,16.41,0,0,0-5-12A16.41,16.41,0,0,0,20,3,16.4,16.4,0,0,0,8,8,16.36,16.36,0,0,0,3,20,16.39,16.39,0,0,0,8,32,16.38,16.38,0,0,0,20,37Z"/></g></g></svg>